{"title":"Mary Kom 2014 Hindi DVD SCR Rip AC3 Audio GOPI SAHI PDR","uid":10987628,"size":680443422,"categoryP":"video","categoryS":"movies","magnet":"?xt=urn:btih:f8c221814b03948ebd5dd373728b761757830789&amp;dn=Mary+Kom+2014+Hindi+DVD+SCR+Rip+AC3+Audio+GOPI+SAHI+PDR&amp;tr=udp%3A%2F%2Ftracker.openbittorrent.com%3A80&amp;tr=udp%3A%2F%2Fopen.demonii.com%3A1337&amp;tr=udp%3A%2F%2Ftracker.coppersurfer.tk%3A6969&amp;tr=udp%3A%2F%2Fexodus.desync.com%3A6969","seeders":1,"leechers":0,"uploader":"jatt13","files":1,"time":1409941851,"description":"Video\nID                             : 1\nFormat                         : AVC\nFormat/Info                    : Advanced Video Codec\nFormat profile                 : &lt;a class=&quot;__cf_email__&quot; href=&quot;/cdn-cgi/l/email-protection&quot; data-cfemail=&quot;97daf6fef9d7dba3b9a7&quot;&gt;[email&amp;#160;protected]&lt;/a&gt;&lt;script cf-hash='f9e31' type=&quot;text/javascript&quot;&gt;\n/* &lt;![CDATA[ */!function(){try{var t=&quot;currentScript&quot;in document?document.currentScript:function(){for(var t=document.getElementsByTagName(&quot;script&quot;),e=t.length;e--;)if(t[e].getAttribute(&quot;cf-hash&quot;))return t[e]}();if(t&amp;&amp;t.previousSibling){var e,r,n,i,c=t.previousSibling,a=c.getAttribute(&quot;data-cfemail&quot;);if(a){for(e=&quot;&quot;,r=parseInt(a.substr(0,2),16),n=2;a.length-n;n+=2)i=parseInt(a.substr(n,2),16)^r,e+=String.fromCharCode(i);e=document.createTextNode(e),c.parentNode.replaceChild(e,c)}}}catch(u){}}();/* ]]&gt; */&lt;/script&gt;\nFormat settings, CABAC         : Yes\nFormat settings, ReFrames      : 4 frames\nCodec ID                       : V_MPEG4/ISO/AVC\nDuration                       : 2h 0mn\nBit rate                       : 500 Kbps\nWidth                          : 704 pixels\nHeight                         : 288 pixels\nDisplay aspect ratio           : 2.40:1\nFrame rate mode                : Constant\nFrame rate                     : 25.000 fps\nColor space                    : YUV\nChroma subsampling             : 4:2:0\nBit depth                      : 8 bits\nScan type                      : Progressive\nBits/(Pixel*Frame)             : 0.099\nStream size                    : 416 MiB (64%)\nTitle                          : GOPI SAHI\nWriting library                : x264 core 130 r2273 b3065e6\nLanguage                       : Hindi\nDefault                        : Yes\nForced                         : No\nColor primaries                : BT.601 PAL\nTransfer characteristics       : BT.709\nMatrix coefficients            : BT.601\n\nAudio\nID                             : 2\nFormat                         : AC-3\nFormat/Info                    : Audio Coding 3\nMode extension                 : CM (complete main)\nFormat settings, Endianness    : Big\nCodec ID                       : A_AC3\nDuration                       : 2h 0mn\nBit rate mode                  : Constant\nBit rate                       : 256 Kbps\nChannel(s)                     : 2 channels\nChannel positions              : Front: L R\nSampling rate                  : 48.0 KHz\nBit depth                      : 16 bits\nCompression mode               : Lossy\nStream size                    : 220 MiB (34%)\nTitle                          : GOPI SAHI\nLanguage                       : Hindi\nDefault                        : Yes\nForced                         : No\n[IMG]http://i.imgur.com/yLHi3MF.jpg[/IMG]\n[IMG]http://i.imgur.com/ERaepQx.jpg[/IMG]\n[IMG]http://i.imgur.com/Lv93Cod.jpg[/IMG]\n[IMG]http://i.imgur.com/cQq9XMC.jpg[/IMG]\n[IMG]http://i.imgur.com/oI6uLrr.jpg[/IMG]\n[IMG]http://i.imgur.com/lJN3Gp3.jpg[/IMG]","torrent":{"xt":"urn:btih:f8c221814b03948ebd5dd373728b761757830789","amp;dn":"Mary+Kom+2014+Hindi+DVD+SCR+Rip+AC3+Audio+GOPI+SAHI+PDR","amp;tr":["udp%3A%2F%2Ftracker.openbittorrent.com%3A80","udp%3A%2F%2Fopen.demonii.com%3A1337","udp%3A%2F%2Ftracker.coppersurfer.tk%3A6969","udp%3A%2F%2Fexodus.desync.com%3A6969"],"infoHash":"f8c221814b03948ebd5dd373728b761757830789","infoHashBuffer":{"type":"Buffer","data":[248,194,33,129,75,3,148,142,189,93,211,115,114,139,118,23,87,131,7,137]},"announce":[],"urlList":[]}}